@startuml
left to right direction
skinparam classAttributeIconSize 0
title Module: com.evolsoft.fjsp2.individualServiceBase

class "AbstractFJSPKnowledgeBaseIndividaulService" as C_com_evolsoft_fjsp_individualservicebase_AbstractFJSPKnowledgeBaseIndividaulService
class "AbstractSimModelBuilder" as C_com_evolsoft_fjsp_individualservicebase_AbstractSimModelBuilder
class "Activator" as C_com_evolsoft_fjsp_individualservicebase_Activator
class "FJSPIndividualServiceBase" as C_com_evolsoft_fjsp_individualservicebase_FJSPIndividualServiceBase
class "AbstractDispatchRuleBuilder" as C_com_evolsoft_problem_fjsp_dispatching_AbstractDispatchRuleBuilder
class "AbstractPrioirtyBasedBuilderBase" as C_com_evolsoft_problem_fjsp_dispatching_AbstractPrioirtyBasedBuilderBase
class "DispatchRule" as C_com_evolsoft_problem_fjsp_dispatching_DispatchRule
class "DispatchRuleMutation" as C_com_evolsoft_problem_fjsp_dispatching_DispatchRuleMutation
interface "IDispatchRuleBuilder" as C_com_evolsoft_problem_fjsp_dispatching_IDispatchRuleBuilder
interface "IDispathComparator" as C_com_evolsoft_problem_fjsp_dispatching_IDispathComparator
interface "IPriorityBasedBuilder" as C_com_evolsoft_problem_fjsp_dispatching_IPriorityBasedBuilder
class "PriorityBasedBuilder" as C_com_evolsoft_problem_fjsp_dispatching_PriorityBasedBuilder
class "Selection" as C_com_evolsoft_problem_fjsp_dispatching_Selection
class "MachineAssignmentGeneAccessor" as C_com_evolsoft_problem_fjsp_individualservice_eda_MachineAssignmentGeneAccessor
class "MachineAssignmentPMatrix" as C_com_evolsoft_problem_fjsp_individualservice_eda_MachineAssignmentPMatrix
class "PromisingDataIterator" as C_com_evolsoft_problem_fjsp_individualservice_eda_PromisingDataIterator
class "FJSP2SimBuilder" as C_com_evolsoft_problem_fjsp_individualservice_simuator_FJSP2SimBuilder
class "FJSPSimulatorWindow" as C_com_evolsoft_problem_fjsp_individualservice_simuator_FJSPSimulatorWindow
interface "IFJSPSimProperty" as C_com_evolsoft_problem_fjsp_individualservice_simuator_IFJSPSimProperty
class "KnowledgeBasedRefinementLayout" as C_com_evolsoft_problem_fjsp_layout_KnowledgeBasedRefinementLayout
class "KnowledgeBasedSeqSectionLayout" as C_com_evolsoft_problem_fjsp_layout_KnowledgeBasedSeqSectionLayout
class "OperationBasedGeneLayout" as C_com_evolsoft_problem_fjsp_layout_OperationBasedGeneLayout
class "OperationBasedSectionLayout" as C_com_evolsoft_problem_fjsp_layout_OperationBasedSectionLayout

C_com_evolsoft_fjsp_individualservicebase_FJSPIndividualServiceBase <|-- C_com_evolsoft_fjsp_individualservicebase_AbstractFJSPKnowledgeBaseIndividaulService
C_com_evolsoft_problem_fjsp_dispatching_AbstractPrioirtyBasedBuilderBase <|-- C_com_evolsoft_problem_fjsp_dispatching_AbstractDispatchRuleBuilder
C_com_evolsoft_problem_fjsp_dispatching_IPriorityBasedBuilder <|-- C_com_evolsoft_problem_fjsp_dispatching_IDispatchRuleBuilder
C_com_evolsoft_problem_fjsp_dispatching_AbstractPrioirtyBasedBuilderBase <|-- C_com_evolsoft_problem_fjsp_dispatching_PriorityBasedBuilder
C_com_evolsoft_fjsp_individualservicebase_AbstractSimModelBuilder <|-- C_com_evolsoft_problem_fjsp_individualservice_simuator_FJSP2SimBuilder
C_com_evolsoft_problem_fjsp_dispatching_IDispatchRuleBuilder <|.. C_com_evolsoft_problem_fjsp_dispatching_AbstractDispatchRuleBuilder
C_com_evolsoft_problem_fjsp_dispatching_IPriorityBasedBuilder <|.. C_com_evolsoft_problem_fjsp_dispatching_PriorityBasedBuilder
C_com_evolsoft_fjsp_individualservicebase_AbstractFJSPKnowledgeBaseIndividaulService --> C_com_evolsoft_problem_fjsp_layout_KnowledgeBasedRefinementLayout
C_com_evolsoft_problem_fjsp_layout_KnowledgeBasedRefinementLayout --> C_com_evolsoft_problem_fjsp_layout_OperationBasedGeneLayout
C_com_evolsoft_problem_fjsp_layout_KnowledgeBasedSeqSectionLayout --> C_com_evolsoft_problem_fjsp_layout_OperationBasedGeneLayout
@enduml
