@startuml
left to right direction
skinparam classAttributeIconSize 0
title Package: com.evolsoft.ec.runtime.ecoperation

class "ActionNotDefinedException" as C_com_evolsoft_ec_runtime_ecoperation_ActionNotDefinedException
class "ArithmeticalCrossover" as C_com_evolsoft_ec_runtime_ecoperation_ArithmeticalCrossover
class "ConfigCrossoverAction" as C_com_evolsoft_ec_runtime_ecoperation_ConfigCrossoverAction
class "ConfigMutionAction" as C_com_evolsoft_ec_runtime_ecoperation_ConfigMutionAction
class "CrossoverActionBase" as C_com_evolsoft_ec_runtime_ecoperation_CrossoverActionBase
class "CustomActionBase" as C_com_evolsoft_ec_runtime_ecoperation_CustomActionBase
enum "ECActionType" as C_com_evolsoft_ec_runtime_ecoperation_ECActionType
class "ECOperation" as C_com_evolsoft_ec_runtime_ecoperation_ECOperation
class "ECProbabilityOperationBase" as C_com_evolsoft_ec_runtime_ecoperation_ECProbabilityOperationBase
class "EvolutionAdvisor" as C_com_evolsoft_ec_runtime_ecoperation_EvolutionAdvisor
class "EvolutionContext" as C_com_evolsoft_ec_runtime_ecoperation_EvolutionContext
class "EvolutionException" as C_com_evolsoft_ec_runtime_ecoperation_EvolutionException
interface "IConfiguableActionDelegate" as C_com_evolsoft_ec_runtime_ecoperation_IConfiguableActionDelegate
interface "ICrossoverActionDelegate" as C_com_evolsoft_ec_runtime_ecoperation_ICrossoverActionDelegate
interface "ICustomActionDelegate" as C_com_evolsoft_ec_runtime_ecoperation_ICustomActionDelegate
interface "IECOperation" as C_com_evolsoft_ec_runtime_ecoperation_IECOperation
interface "IEvolutionContext" as C_com_evolsoft_ec_runtime_ecoperation_IEvolutionContext
interface "IMutationActionDelegate" as C_com_evolsoft_ec_runtime_ecoperation_IMutationActionDelegate
interface "IRecombinationActionDelegate" as C_com_evolsoft_ec_runtime_ecoperation_IRecombinationActionDelegate
interface "IRecombinationActionManager" as C_com_evolsoft_ec_runtime_ecoperation_IRecombinationActionManager
interface "ISelectionActionDelegate" as C_com_evolsoft_ec_runtime_ecoperation_ISelectionActionDelegate
class "ListRecombinationActionBase" as C_com_evolsoft_ec_runtime_ecoperation_ListRecombinationActionBase
class "MutationActionBase" as C_com_evolsoft_ec_runtime_ecoperation_MutationActionBase
class "PartialMapCrossover" as C_com_evolsoft_ec_runtime_ecoperation_PartialMapCrossover
class "PolynomialMutation" as C_com_evolsoft_ec_runtime_ecoperation_PolynomialMutation
class "RandomKeyGeneMutation" as C_com_evolsoft_ec_runtime_ecoperation_RandomKeyGeneMutation
class "RecombinationActionManager" as C_com_evolsoft_ec_runtime_ecoperation_RecombinationActionManager
class "SimulatedBinaryCrossover" as C_com_evolsoft_ec_runtime_ecoperation_SimulatedBinaryCrossover
class "StartException" as C_com_evolsoft_ec_runtime_ecoperation_StartException
class "TwoCutCrossover" as C_com_evolsoft_ec_runtime_ecoperation_TwoCutCrossover
class "UniformCrossover" as C_com_evolsoft_ec_runtime_ecoperation_UniformCrossover
class "oneCutCrossover" as C_com_evolsoft_ec_runtime_ecoperation_oneCutCrossover

C_com_evolsoft_ec_runtime_ecoperation_CrossoverActionBase <|-- C_com_evolsoft_ec_runtime_ecoperation_ConfigCrossoverAction
C_com_evolsoft_ec_runtime_ecoperation_MutationActionBase <|-- C_com_evolsoft_ec_runtime_ecoperation_ConfigMutionAction
C_com_evolsoft_ec_runtime_ecoperation_ListRecombinationActionBase <|-- C_com_evolsoft_ec_runtime_ecoperation_CrossoverActionBase
C_com_evolsoft_ec_runtime_ecoperation_ListRecombinationActionBase <|-- C_com_evolsoft_ec_runtime_ecoperation_CustomActionBase
C_com_evolsoft_ec_runtime_ecoperation_ECOperation <|-- C_com_evolsoft_ec_runtime_ecoperation_ECProbabilityOperationBase
C_com_evolsoft_ec_runtime_ecoperation_IRecombinationActionDelegate <|-- C_com_evolsoft_ec_runtime_ecoperation_IConfiguableActionDelegate
C_com_evolsoft_ec_runtime_ecoperation_IRecombinationActionDelegate <|-- C_com_evolsoft_ec_runtime_ecoperation_ICrossoverActionDelegate
C_com_evolsoft_ec_runtime_ecoperation_IRecombinationActionDelegate <|-- C_com_evolsoft_ec_runtime_ecoperation_ICustomActionDelegate
C_com_evolsoft_ec_runtime_ecoperation_IRecombinationActionDelegate <|-- C_com_evolsoft_ec_runtime_ecoperation_IMutationActionDelegate
C_com_evolsoft_ec_runtime_ecoperation_ECProbabilityOperationBase <|-- C_com_evolsoft_ec_runtime_ecoperation_ListRecombinationActionBase
C_com_evolsoft_ec_runtime_ecoperation_ListRecombinationActionBase <|-- C_com_evolsoft_ec_runtime_ecoperation_MutationActionBase
C_com_evolsoft_ec_runtime_ecoperation_IConfiguableActionDelegate <|.. C_com_evolsoft_ec_runtime_ecoperation_ConfigCrossoverAction
C_com_evolsoft_ec_runtime_ecoperation_IConfiguableActionDelegate <|.. C_com_evolsoft_ec_runtime_ecoperation_ConfigMutionAction
C_com_evolsoft_ec_runtime_ecoperation_ICrossoverActionDelegate <|.. C_com_evolsoft_ec_runtime_ecoperation_CrossoverActionBase
C_com_evolsoft_ec_runtime_ecoperation_ICustomActionDelegate <|.. C_com_evolsoft_ec_runtime_ecoperation_CustomActionBase
C_com_evolsoft_ec_runtime_ecoperation_IECOperation <|.. C_com_evolsoft_ec_runtime_ecoperation_ECOperation
C_com_evolsoft_ec_runtime_ecoperation_IRecombinationActionDelegate <|.. C_com_evolsoft_ec_runtime_ecoperation_ECProbabilityOperationBase
C_com_evolsoft_ec_runtime_ecoperation_IEvolutionContext <|.. C_com_evolsoft_ec_runtime_ecoperation_EvolutionContext
C_com_evolsoft_ec_runtime_ecoperation_IMutationActionDelegate <|.. C_com_evolsoft_ec_runtime_ecoperation_MutationActionBase
C_com_evolsoft_ec_runtime_ecoperation_IRecombinationActionManager <|.. C_com_evolsoft_ec_runtime_ecoperation_RecombinationActionManager
C_com_evolsoft_ec_runtime_ecoperation_EvolutionAdvisor --> C_com_evolsoft_ec_runtime_ecoperation_EvolutionContext
C_com_evolsoft_ec_runtime_ecoperation_EvolutionAdvisor --> C_com_evolsoft_ec_runtime_ecoperation_IRecombinationActionDelegate
@enduml
